<?xml version='1.0' encoding='UTF-8'?>
<svg x="0px" y="0px" viewBox="0 0 32 32" version="1.1" xmlns="http://www.w3.org/2000/svg" xmlns:xlink="http://www.w3.org/1999/xlink" enable-background="new 0 0 32 32" xml:space="preserve" id="Layer_1">
  <style type="text/css">
	.Yellow{fill:#FFB115;}
	.Red{fill:#D11C1C;}
	.Black{fill:#727272;}
	.Blue{fill:#1177D7;}
	.White{fill:#FFFFFF;}
	.Green{fill:#039C23;}
	.st0{opacity:0.75;}
	.st1{opacity:0.5;}
	.st2{opacity:0.25;}
	.st3{fill:#FFB115;}
</style>
  <g id="AddQuery">
    <g opacity="0.5" class="st1">
      <path d="M20,4h8v6h-8V4z M20,18h8v-6h-8V18z M10,20v6h8v-6H10z M8,26v-6H0v6H8z" fill="#727272" opacity="0.5" class="Black" />
    </g>
    <path d="M32,24h-4v-4h-4v4h-4v4h4v4h4v-4h4V24z M18,10h-8V4h8V10z M8,12H0v6h8V12z M18,12h-8v6h8V12z M8,4H0v6h8V4z" fill="#039C23" class="Green" />
  </g>
</svg>