<?xml version='1.0' encoding='UTF-8'?>
<svg x="0px" y="0px" viewBox="0 0 32 32" version="1.1" xmlns="http://www.w3.org/2000/svg" xmlns:xlink="http://www.w3.org/1999/xlink" enable-background="new 0 0 32 32" xml:space="preserve" id="Layer_1">
  <style type="text/css">
	.Yellow{fill:#FFB115;}
	.Red{fill:#D11C1C;}
	.Black{fill:#727272;}
	.Green{fill:#039C23;}
	.Blue{fill:#1177D7;}
</style>
  <g id="Wallet">
    <path d="M20,22c-3.4,0-6.1-2.8-6-6.2c0.1-3.3,3-5.8,6.3-5.8H28c0,0,0,0,0,0V6V5c0-0.6-0.5-1-1-1H3C2.5,4,2,4.5,2,5V27   c0,0.6,0.5,1,1,1H27c0.6,0,1-0.5,1-1V22c0,0,0,0,0,0H20z" fill="#D11C1C" class="Red" />
    <path d="M29,12L29,12h-9c-2.3,0-4.2,2-4,4.4c0.2,2.1,2.1,3.6,4.2,3.6H29h0c0.5,0,1-0.5,1-1v-6C30,12.5,29.5,12,29,12z    M20,18c-1.1,0-2-0.9-2-2c0-1.1,0.9-2,2-2s2,0.9,2,2C22,17.1,21.1,18,20,18z" fill="#D11C1C" class="Red" />
  </g>
</svg>